<svg width="98" height="61" viewBox="0 0 98 61" fill="none" xmlns="http://www.w3.org/2000/svg">
<path d="M36.756 27.0741H39.5834C40.9731 26.8838 42.2191 26.3128 43.2734 25.266L48.2572 20.3175L48.4968 20.4126C48.976 20.5554 49.4073 20.6505 49.8386 20.6505C50.9888 20.6505 52.091 20.2223 52.9056 19.3658C53.7203 18.5569 54.1995 17.4626 54.1995 16.3206C54.1995 15.1786 53.7682 14.0842 52.9056 13.2754C51.2763 11.6576 48.401 11.6576 46.7716 13.2754C45.957 14.0842 45.4778 15.1786 45.4778 16.3206C45.4778 16.7488 45.5736 17.1771 45.7174 17.6529L45.8132 17.8908L40.8293 22.8393C40.3022 23.3627 39.5834 23.6958 38.9125 23.6958L37.1394 23.7434L37.3311 23.1724C37.7144 22.0304 38.2895 20.936 39.1042 20.032C40.7814 18.0335 41.6919 15.7496 41.6919 13.3229C41.644 6.99454 35.4621 0 27.1716 0C18.8812 0 12.6993 6.99454 12.6993 13.2754C12.6993 15.8448 13.7056 18.319 15.6225 20.3651C16.3413 21.1264 16.8685 22.078 17.2039 23.1248L17.3956 23.6958H15.335C14.6161 23.6958 13.8973 23.3627 13.3702 22.8393L8.38631 17.8908L8.48215 17.6529C8.62592 17.1771 8.72176 16.7488 8.72176 16.3206C8.72176 15.1786 8.29046 14.0842 7.42787 13.2754C5.79853 11.6576 2.92323 11.6576 1.29389 13.2754C0.479218 14.0842 0 15.1786 0 16.3206C0 17.4626 0.431296 18.5569 1.29389 19.3658C2.10856 20.1747 3.21076 20.6505 4.36088 20.6505C4.79218 20.6505 5.22347 20.5554 5.70269 20.4126L5.9423 20.3175L10.9262 25.266C11.9325 26.2652 13.2264 26.8838 14.6161 27.0741H17.779C18.1144 27.0741 18.4499 27.3596 18.4499 27.7402C18.4499 28.0733 18.1623 28.4064 17.779 28.4064H17.0122H16.6768C15.0474 28.454 13.5619 29.1201 12.3638 30.2621L7.37995 35.2106L7.14034 35.1154C5.55892 34.6396 3.83374 35.0203 2.73154 36.1147C1.91687 36.9711 1.43765 38.0179 1.43765 39.2075C1.43765 40.397 1.86895 41.4438 2.73154 42.2527C4.36088 43.8705 7.23619 43.8705 8.86553 42.2527C9.6802 41.4438 10.1594 40.3495 10.1594 39.2075C10.1594 38.7793 10.0636 38.351 9.91981 37.8752L9.82396 37.5897L14.8557 32.6412C15.3829 32.1178 16.1017 31.7847 16.7726 31.7847H18.0186L17.5873 32.4509C16.9164 33.4501 16.5809 34.6872 16.5809 35.9243V42.9665L16.3413 43.1092C14.8557 43.8705 13.9452 45.3456 13.9452 46.9633C13.9452 49.3424 15.91 51.2933 18.3061 51.2933C20.7022 51.2933 22.667 49.3424 22.667 46.9633C22.667 45.3456 21.7565 43.8705 20.2709 43.1092L20.0313 43.014V35.8768C20.0313 35.1154 20.3188 34.4017 20.798 33.9259L22.3795 32.3081H22.5711C23.2421 32.3557 23.6254 32.3557 24.488 32.3557H25.4465V52.7208L25.2068 52.8159C23.7213 53.5772 22.8108 55.0523 22.8108 56.67C22.8108 59.0491 24.7756 61 27.1716 61C29.5677 61 31.5325 59.0491 31.5325 56.67C31.5325 55.0523 30.622 53.5772 29.1364 52.8159L28.8968 52.7208V32.3557H29.3281C30.0469 32.3557 31.1012 32.3557 31.7242 32.3557H31.9159L33.4494 33.9259C33.9286 34.4493 34.2161 35.163 34.2161 35.9243V42.9665L33.9765 43.0616C32.491 43.8229 31.5804 45.298 31.5804 46.9158C31.5804 49.2949 33.5452 51.2457 35.9413 51.2457C38.3374 51.2457 40.3022 49.2949 40.3022 46.9158C40.3022 45.298 39.3917 43.8229 37.9061 43.0616L37.6665 42.9189V35.8768C37.6665 34.6396 37.3311 33.4501 36.6601 32.4033L36.2289 31.7371H37.4748C38.1936 31.7371 38.9125 32.0702 39.4396 32.5936L44.3755 37.5897L44.2797 37.8276C44.1359 38.3034 44.0401 38.7317 44.0401 39.1599C44.0401 40.3019 44.4714 41.3963 45.334 42.2051C46.9633 43.8229 49.8386 43.8229 51.468 42.2051C52.2826 41.3963 52.7619 40.3019 52.7619 39.1599C52.7619 38.0179 52.3306 36.9236 51.468 36.1147C50.3658 35.0203 48.6406 34.6396 47.0592 35.1154L46.8675 35.2106L41.8357 30.2145C40.6856 29.0725 39.1521 28.4064 37.5227 28.3588H37.1394H36.756C36.4205 28.3588 36.0851 28.0733 36.0851 27.6927C36.133 27.3596 36.4205 27.0741 36.756 27.0741ZM48.6406 15.0359C49.3115 14.3697 50.4616 14.3697 51.1325 15.0359C51.468 15.369 51.6597 15.7972 51.6597 16.273C51.6597 16.7488 51.468 17.1771 51.1325 17.5101C50.7971 17.8432 50.3658 17.986 49.8866 17.986C49.4073 17.986 48.976 17.7956 48.6406 17.5101C48.3051 17.1771 48.1134 16.7488 48.1134 16.273C48.1134 15.8448 48.3051 15.369 48.6406 15.0359ZM5.60685 17.5101C5.27139 17.8432 4.79218 18.0335 4.36088 18.0335C3.92958 18.0335 3.45037 17.8432 3.11491 17.5101C2.77946 17.1771 2.58778 16.7488 2.58778 16.273C2.58778 15.7972 2.77946 15.369 3.11491 15.0359C3.78582 14.3697 4.93594 14.3697 5.60685 15.0359C5.9423 15.369 6.13399 15.7972 6.13399 16.273C6.13399 16.7488 5.9423 17.1771 5.60685 17.5101ZM7.0445 40.4446C6.70905 40.7777 6.27775 40.9204 5.79853 40.9204C5.31932 40.9204 4.88802 40.7301 4.55257 40.4446C4.21711 40.1115 4.02543 39.6833 4.02543 39.2075C4.02543 38.7317 4.21711 38.3034 4.55257 37.9704C5.22347 37.3042 6.37359 37.3042 7.0445 37.9704C7.37995 38.3034 7.57164 38.7317 7.57164 39.2075C7.57164 39.6833 7.37995 40.1115 7.0445 40.4446ZM20.0792 46.8682C20.0792 47.8198 19.3125 48.6287 18.3061 48.6287C17.2998 48.6287 16.533 47.8674 16.533 46.8682C16.533 45.9165 17.2998 45.1076 18.3061 45.1076C19.3125 45.1076 20.0792 45.9165 20.0792 46.8682ZM28.8968 56.67C28.8968 57.6217 28.1301 58.4306 27.1237 58.4306C26.1653 58.4306 25.3506 57.6693 25.3506 56.67C25.3506 55.7184 26.1174 54.9095 27.1237 54.9095C28.1301 54.9095 28.8968 55.7184 28.8968 56.67ZM47.155 37.9704C47.8259 37.3042 48.976 37.3042 49.6469 37.9704C49.9824 38.3034 50.1741 38.7317 50.1741 39.2075C50.1741 39.6833 49.9824 40.1115 49.6469 40.4446C49.3115 40.7777 48.8802 40.9204 48.401 40.9204C47.9218 40.9204 47.4905 40.7301 47.155 40.4446C46.8196 40.1115 46.6279 39.6833 46.6279 39.2075C46.6279 38.7317 46.8675 38.3034 47.155 37.9704ZM37.6665 46.8682C37.6665 47.8198 36.8998 48.6287 35.8934 48.6287C34.887 48.6287 34.1203 47.8674 34.1203 46.8682C34.1203 45.9165 34.887 45.1076 35.8934 45.1076C36.8998 45.1076 37.6665 45.9165 37.6665 46.8682Z" fill="#4286F4"/>
<path d="M23.1942 23.3151C21.4211 23.3151 19.9355 21.8401 19.9355 20.032C19.9355 18.2239 21.3732 16.7488 23.1942 16.7488C24.9673 16.7488 26.4529 18.2239 26.4529 20.032C26.4529 21.8401 25.0152 23.3151 23.1942 23.3151Z" fill="white"/>
<path d="M30.9096 23.1724C29.1365 23.1724 27.6509 21.7449 27.6509 19.9368C27.6509 18.1763 29.0885 16.7012 30.9096 16.7012C32.6827 16.7012 34.1682 18.1287 34.1682 19.9368C34.1682 21.6973 32.7306 23.1724 30.9096 23.1724Z" fill="white"/>
<path d="M32.0597 19.9368C31.4367 19.9368 30.9095 19.4134 30.9095 18.7948C30.9095 18.5093 31.0054 18.2714 31.1971 18.0811C31.1012 18.0811 31.0054 18.0811 30.9095 18.0811C29.8553 18.0811 28.9927 18.9376 28.9927 19.9368C28.9927 20.9836 29.8553 21.7925 30.9095 21.7925C31.9638 21.7925 32.8264 20.936 32.8264 19.9368C32.8264 19.8416 32.8264 19.794 32.8264 19.6989C32.5868 19.8416 32.3472 19.9368 32.0597 19.9368Z" fill="black"/>
<path d="M24.3922 20.032C23.7692 20.032 23.2421 19.5086 23.2421 18.89C23.2421 18.6045 23.3379 18.3666 23.5296 18.1287C23.4338 18.1287 23.3379 18.1287 23.2421 18.1287C22.1878 18.1287 21.3252 18.9852 21.3252 20.032C21.3252 21.0788 22.1878 21.9352 23.2421 21.9352C24.2964 21.9352 25.1589 21.0788 25.1589 20.032C25.1589 19.9368 25.1589 19.8892 25.1589 19.7941C24.8714 19.9368 24.6318 20.032 24.3922 20.032Z" fill="black"/>
<path d="M62.49 35.0679C61.4358 34.7348 60.5732 34.3065 59.9502 33.7831L60.9086 31.642C61.5316 32.1178 62.2504 32.4984 63.161 32.8315C64.0715 33.117 64.9341 33.3073 65.8446 33.3073C66.9468 33.3073 67.8094 33.117 68.3365 32.7839C68.8637 32.4509 69.1512 31.975 69.1512 31.4041C69.1512 30.9758 69.0074 30.6427 68.672 30.3573C68.3844 30.0718 68.0011 29.8814 67.5218 29.6911C67.0426 29.5484 66.4196 29.358 65.605 29.1677C64.4548 28.8822 63.5443 28.6443 62.8255 28.3588C62.1067 28.0733 61.5316 27.6451 61.0045 27.0741C60.4773 26.5031 60.2377 25.7418 60.2377 24.7426C60.2377 23.9337 60.4773 23.1724 60.9086 22.5062C61.3399 21.8401 62.0108 21.3167 62.9214 20.8885C63.8319 20.5078 64.9341 20.3175 66.228 20.3175C67.1385 20.3175 68.049 20.4126 68.9116 20.6505C69.7742 20.8885 70.5409 21.2215 71.2118 21.6498L70.3492 23.791C69.6783 23.4103 69.0074 23.1248 68.2886 22.9345C67.5698 22.7442 66.8989 22.649 66.228 22.649C65.1258 22.649 64.3111 22.8393 63.7839 23.22C63.2568 23.6006 62.9693 24.0764 62.9693 24.695C62.9693 25.1232 63.113 25.4563 63.4485 25.7418C63.736 26.0273 64.1194 26.2176 64.5986 26.3604C65.0778 26.5031 65.7008 26.6934 66.5155 26.8838C67.6177 27.1217 68.5282 27.4072 69.247 27.6927C69.9659 27.9782 70.5888 28.4064 71.0681 28.9774C71.5952 29.5484 71.8348 30.3097 71.8348 31.2613C71.8348 32.0702 71.5952 32.8315 71.1639 33.4977C70.7326 34.1638 70.0138 34.6872 69.1033 35.0679C68.1927 35.4485 67.0905 35.6388 65.7487 35.6388C64.6465 35.5913 63.5443 35.4009 62.49 35.0679Z" fill="black"/>
<path d="M74.6143 20.5078H77.3937V33.0219H85.205V35.3534H74.6143V20.5078Z" fill="black"/>
<path d="M88.6075 35.0679C87.5532 34.7348 86.6906 34.3065 86.0676 33.7831L87.0261 31.642C87.649 32.1178 88.3679 32.4984 89.2784 32.8315C90.1889 33.117 91.0515 33.3073 91.962 33.3073C93.0642 33.3073 93.9268 33.117 94.4539 32.7839C94.9811 32.4509 95.2686 31.975 95.2686 31.4041C95.2686 30.9758 95.1248 30.6427 94.7894 30.3573C94.5019 30.0718 94.1185 29.8814 93.6393 29.6911C93.16 29.5484 92.5371 29.358 91.7224 29.1677C90.5723 28.8822 89.6618 28.6443 88.9429 28.3588C88.2241 28.0733 87.649 27.6451 87.1219 27.0741C86.5948 26.5031 86.3552 25.7418 86.3552 24.7426C86.3552 23.9337 86.5948 23.1724 87.0261 22.5062C87.4574 21.8401 88.1283 21.3167 89.0388 20.8885C89.9493 20.5078 91.0515 20.3175 92.3454 20.3175C93.2559 20.3175 94.1664 20.4126 95.029 20.6505C95.8916 20.8885 96.6583 21.2215 97.3292 21.6498L96.4666 23.791C95.7957 23.4103 95.1248 23.1248 94.406 22.9345C93.6872 22.7442 93.0163 22.649 92.3454 22.649C91.2432 22.649 90.4285 22.8393 89.9014 23.22C89.3742 23.6006 89.0867 24.0764 89.0867 24.695C89.0867 25.1232 89.2305 25.4563 89.5659 25.7418C89.8534 26.0273 90.2368 26.2176 90.716 26.3604C91.1953 26.5031 91.8182 26.6934 92.6329 26.8838C93.7351 27.1217 94.6456 27.4072 95.3644 27.6927C96.0833 27.9782 96.7063 28.4064 97.1855 28.9774C97.7126 29.5484 97.9522 30.3097 97.9522 31.2613C97.9522 32.0702 97.7126 32.8315 97.2813 33.4977C96.85 34.1638 96.1312 34.6872 95.2207 35.0679C94.3102 35.4485 93.208 35.6388 91.8662 35.6388C90.8119 35.5913 89.6618 35.4009 88.6075 35.0679Z" fill="black"/>
</svg>
